<svg width="430" height="430" viewBox="0 0 430 430" fill="none" xmlns="http://www.w3.org/2000/svg">
<path d="M61.6 274.4C62.9 277.4 61.5 281 58.4 282.3C57.6 282.6 56.8 282.8 56 282.8C53.7 282.8 51.5 281.4 50.5 279.2C50 278 38.3 250.4 38.9 211.7C39.5 176.2 51 124.7 102.6 79.7001H64.5C61.2 79.7001 58.5 77.0001 58.5 73.7001C58.5 70.4001 61.2 67.7001 64.5 67.7001H116.3C119.6 67.7001 122.3 70.4001 122.3 73.7001V125.5C122.3 128.8 119.6 131.5 116.3 131.5C113 131.5 110.3 128.8 110.3 125.5V88.8001C71.9 122.4 51.9 163.6 51 211.3C50.3 247.5 61.5 274.1 61.6 274.4ZM363.7 116.3V64.5001C363.7 61.2001 361 58.5001 357.7 58.5001C354.4 58.5001 351.7 61.2001 351.7 64.5001V102.7C306.7 51.2001 255.1 39.6001 219.7 39.0001C181 38.4001 153.4 50.1001 152.2 50.6001C149.2 51.9001 147.8 55.4001 149.1 58.5001C150.4 61.6001 153.9 63.0001 157 61.6001C157.3 61.5001 183.4 50.4001 219.6 51.0001C267.4 51.8001 308.8 71.7001 342.6 110.3H306C302.7 110.3 300 113 300 116.3C300 119.6 302.7 122.3 306 122.3H357.8C361 122.3 363.7 119.6 363.7 116.3ZM391 216.1C391.6 177.5 379.9 149.8 379.4 148.6C378.1 145.6 374.6 144.2 371.5 145.5C368.4 146.8 367 150.3 368.4 153.4C368.5 153.7 379.6 179.9 379 216C378.2 263.9 358.2 305.3 319.5 339.1V302.4C319.5 299.1 316.8 296.4 313.5 296.4C310.2 296.4 307.5 299.1 307.5 302.4V354.2C307.5 357.5 310.2 360.2 313.5 360.2H365.3C368.6 360.2 371.3 357.5 371.3 354.2C371.3 350.9 368.6 348.2 365.3 348.2H327.2C378.9 303.2 390.4 251.6 391 216.1ZM274.4 368.1C274.1 368.2 247.5 379.4 211.3 378.7C163.6 377.8 122.4 357.8 88.8 319.3H125.4C128.7 319.3 131.4 316.6 131.4 313.3C131.4 310 128.7 307.3 125.4 307.3H73.5C70.2 307.3 67.5 310 67.5 313.3V365.1C67.5 368.4 70.2 371.1 73.5 371.1C76.8 371.1 79.5 368.4 79.5 365.1V327C124.5 378.5 176.1 390.1 211.6 390.6C212.6 390.6 213.6 390.6 214.6 390.6C251.7 390.6 278 379.5 279.1 379C282.1 377.7 283.6 374.2 282.2 371.1C280.9 368.2 277.4 366.8 274.4 368.1Z" fill="url(#paint0_linear_2096_12923)"/>
<defs>
<linearGradient id="paint0_linear_2096_12923" x1="65.185" y1="64.3993" x2="364.452" y2="363.667" gradientUnits="userSpaceOnUse">
<stop stop-color="#CB5EEE"/>
<stop offset="1" stop-color="#4BE1EC"/>
</linearGradient>
</defs>
</svg>
